<svg xmlns="http://www.w3.org/2000/svg" viewBox="0 0 150 72">
  <defs>
    <style>
      .cls-1 {
        fill: #fff;
      }
    </style>
  </defs>
  <g id="Layer_1" data-name="Layer 1">
    <g>
      <path class="cls-1" d="M37.63,36v17A16.55,16.55,0,0,1,25.16,69a16.07,16.07,0,0,1-4.68.49A16.29,16.29,0,0,1,8.59,63.76,16.14,16.14,0,0,1,4.81,55.9,16.32,16.32,0,0,1,4.55,53q0-17,0-34.09a16.52,16.52,0,0,1,8.89-14.6,16.3,16.3,0,0,1,5.31-1.72,15.74,15.74,0,0,1,3.63-.11A16.26,16.26,0,0,1,32.49,7a16.34,16.34,0,0,1,4.81,8.66,15.93,15.93,0,0,1,.33,3.3Zm-16,5.08v11c0,.27.1.36.36.38a1,1,0,0,0,.17,0h5.94c.43,0,.53-.09.53-.54q0-7.39,0-14.8a1.56,1.56,0,0,0-.49-1.17l-6.05-6a1.29,1.29,0,0,0-.17-.16.17.17,0,0,0-.28.11,1.31,1.31,0,0,0,0,.28Zm-1,0c0-3.65,0-7.31,0-11,0-.13.05-.29-.11-.35s-.22.08-.31.16q-3,3-6,6a1.65,1.65,0,0,0-.52,1.27c0,4.89,0,9.78,0,14.66V52c0,.3.11.39.4.4a.75.75,0,0,0,.15,0H20c.51,0,.54-.14.54-.55C20.57,48.29,20.58,44.67,20.58,41.06Zm9,3.5V52c0,.3.09.39.39.4a1.08,1.08,0,0,0,.18,0H36c.52,0,.57,0,.57-.57V37.1c0-.28-.1-.37-.38-.37H30c-.3,0-.37.07-.38.37v7.46Zm-24,0v7.57a.28.28,0,0,0,.23.26H6q3,0,6.05,0c.39,0,.47-.08.47-.46,0,0,0,0,0-.06V37.23a1,1,0,0,0,0-.25.26.26,0,0,0-.27-.25H6.12c-.49,0-.55.07-.54.54ZM35.44,13.23a.88.88,0,0,0,0-.15,1.8,1.8,0,0,0-.08-.21,15.53,15.53,0,0,0-4.89-6.25c-.25-.19-.51-.37-.77-.54s-.32-.1-.41.14a.36.36,0,0,0,0,.11Q25.87,16,22.53,25.67a.47.47,0,0,0-.06.19.17.17,0,0,0,.05.12.15.15,0,0,0,.13,0,1.74,1.74,0,0,0,.15-.13q3.09-3.09,6.2-6.16l4-4c.74-.72,1.47-1.45,2.2-2.18C35.33,13.39,35.39,13.29,35.44,13.23ZM19.72,25.88c0-.06,0-.1,0-.15s-.13-.38-.19-.57Q16.22,15.77,13,6.39a1.34,1.34,0,0,0-.09-.24A.21.21,0,0,0,12.56,6l-.19.13A14.68,14.68,0,0,0,9.92,8.24a15.48,15.48,0,0,0-3.09,4.65c-.13.31-.12.37.11.61l.09.08,3.91,3.87,8.44,8.38a1.85,1.85,0,0,0,.14.14.21.21,0,0,0,.13,0S19.7,25.91,19.72,25.88ZM21.6,14.12v10a1.32,1.32,0,0,0,0,.28s.06.1.11.11.09,0,.11-.07a1.28,1.28,0,0,0,.11-.27q1-3,2.09-6L28.3,5.86c.16-.44.11-.56-.31-.77A15.54,15.54,0,0,0,25.19,4,14.77,14.77,0,0,0,22,3.51c-.31,0-.42.1-.43.4V14.12Zm-1,0v-10a2.81,2.81,0,0,0,0-.29.31.31,0,0,0-.31-.28h-.2a14.91,14.91,0,0,0-3.56.66,14.55,14.55,0,0,0-2.39,1c-.18.09-.33.21-.31.43a1,1,0,0,0,.07.28l.9,2.59,5.46,15.79a.94.94,0,0,0,.1.23.2.2,0,0,0,.15.09s.08-.08.09-.12a2.81,2.81,0,0,0,0-.29Zm.52,39.34H5.93c-.29,0-.35.05-.33.33,0,.43.07.86.13,1.29s.09.56.64.56H36.05c.25,0,.33-.06.36-.31.07-.46.12-.91.16-1.37s0-.5-.47-.5Zm0,3.2H6.41c-.28,0-.37.1-.29.36.17.54.35,1.07.53,1.6a.31.31,0,0,0,.33.23H35.25a.25.25,0,0,0,.26-.18q.3-.85.57-1.71c.05-.16,0-.26-.2-.28H21.11Zm8.52-23,.09,0,.13-.26,6.62-14.21a1.37,1.37,0,0,0,.13-.63,15.65,15.65,0,0,0-.32-2.73c-.09-.39-.19-.78-.29-1.17-.07-.22-.19-.25-.36-.1l-.21.2-5.53,5.49a.84.84,0,0,0-.28.66q0,6.23,0,12.45C29.62,33.44,29.63,33.53,29.63,33.62Zm-17.15,0a.44.44,0,0,0,.08-.37c0-3.93,0-7.86,0-11.79,0-.22,0-.44,0-.66a.75.75,0,0,0-.23-.56c-.27-.24-.52-.5-.78-.76L6.64,14.63a1,1,0,0,0-.15-.14.17.17,0,0,0-.26.08.76.76,0,0,0-.06.16,15.67,15.67,0,0,0-.59,3.78,1.61,1.61,0,0,0,.16.72L8.41,25q2,4.2,3.92,8.41A2.6,2.6,0,0,0,12.48,33.66Zm8.6,26.21H7.69c-.34,0-.43.13-.26.42.27.47.57.93.85,1.4a.72.72,0,0,0,.7.38c1.43,0,2.87,0,4.3,0H33.4a.44.44,0,0,0,.39-.21c.1-.14.2-.28.29-.43.23-.38.46-.76.68-1.16s.07-.38-.24-.39H21.08Zm0,3.2h-11a1.31,1.31,0,0,0-.28,0,.21.21,0,0,0-.14.33.85.85,0,0,0,.16.17c.5.48,1,1,1.53,1.43a1,1,0,0,0,.72.26H30.15a.92.92,0,0,0,.66-.23l1.57-1.47a.32.32,0,0,0,.1-.1.63.63,0,0,0,.07-.26c0-.11-.14-.14-.26-.14H21.11Zm0,3.21H14a.91.91,0,0,0-.23,0,.28.28,0,0,0-.18.09c-.05.09,0,.15.11.2l.07,0a15.38,15.38,0,0,0,7,1.85,15.53,15.53,0,0,0,7.73-1.86c.09,0,.22-.08.19-.21s-.16-.11-.26-.12H21.09Zm-7.51-33,.06,0c0-.07.07-.13.1-.2,1-2.62,2-5.25,3.06-7.87a.53.53,0,0,0-.14-.66L14,21.91s-.05-.07-.08-.08-.15-.07-.2,0a.25.25,0,0,0-.1.18.89.89,0,0,0,0,.23V33.28Zm14.94,0,.07,0V22.13a1,1,0,0,0,0-.17c0-.07-.05-.16-.1-.18a.24.24,0,0,0-.19.06,1.6,1.6,0,0,0-.27.25c-.84.83-1.67,1.67-2.51,2.48a.52.52,0,0,0-.13.67l0,.08c1,2.48,1.93,5,2.89,7.45Zm8.06-11.7h-.1l-.15.3-3.72,8C32.08,31,31.54,32.18,31,33.32c0,.08-.13.17-.06.3l.23-.2c1.71-1.69,3.41-3.39,5.13-5.08a1,1,0,0,0,.3-.74c0-1.34,0-2.68,0-4V21.89A2.85,2.85,0,0,0,36.58,21.6Zm0,8-.08,0-.25.23-4.47,4.43-1.16,1.16c-.06.06-.16.11-.1.25h5.71c.34,0,.39,0,.39-.37V29.91A1.17,1.17,0,0,0,36.57,29.65Zm-31-8c0,.1,0,.2,0,.3,0,1.9,0,3.8,0,5.71a.93.93,0,0,0,.31.73l3.9,3.87,1.27,1.25c0,.05.1.14.21.11C11.13,33.15,5.8,21.76,5.6,21.61Zm0,8a2.16,2.16,0,0,0,0,.29v5.51c0,.26,0,.31.32.31h5.6l.21,0c-.12-.23-4.51-4.66-5.87-5.92A2.16,2.16,0,0,0,5.62,29.59Zm8.92,4.31.07.05.22-.2,5.26-5.23c.24-.23.23-.3,0-.53L18,26c-.28-.27-.32-.27-.46.09l-2.95,7.6A2.67,2.67,0,0,0,14.54,33.9Zm13,.05.06,0a2.29,2.29,0,0,0-.09-.28L24.8,26.55l-.26-.66c-.07-.15-.14-.16-.27-.07l-.1.1-2,2-.12.12a.25.25,0,0,0,0,.4,1.36,1.36,0,0,0,.12.12l3.23,3.21,2,2Z"/>
      <g>
        <path class="cls-1" d="M44.15,41a6.39,6.39,0,0,1,.75-.09H54c.18,0,.44.11.52-.12s-.21-.28-.35-.38a3.49,3.49,0,0,1-1.66-3c0-1,0-2,0-3,0-.48.05-.51.54-.52h.82c.4,0,.44,0,.44.45,0,1,0,2,0,3a2.82,2.82,0,0,0,.09.76A1.6,1.6,0,0,0,56,39.25q1.86,0,3.72,0a1.61,1.61,0,0,0,1.65-1.61q.06-1.94,0-3.87a2.88,2.88,0,0,0-1-1.94c-2.09-2.07-4.17-4.16-6.27-6.23a5.06,5.06,0,0,1-1.61-3.89c0-.83,0-1.68.06-2.5A3.48,3.48,0,0,1,56,16.1c1.22,0,2.44,0,3.67,0a3.55,3.55,0,0,1,3.5,3.52c0,1,0,2.07,0,3.1,0,.41-.07.47-.47.48h-.92c-.36,0-.42-.07-.42-.43,0-1,0-2,0-3.05a3,3,0,0,0-.1-.8,1.56,1.56,0,0,0-1.47-1.13c-1.29,0-2.57,0-3.86,0a1.6,1.6,0,0,0-1.59,1.57c-.05,1,0,2.07,0,3.09a2.86,2.86,0,0,0,.9,1.88L60.94,30c.22.23.45.46.68.68a4.78,4.78,0,0,1,1.52,3.49c0,1.08,0,2.16,0,3.24a3.5,3.5,0,0,1-1.74,3c-.12.08-.34.12-.28.33s.26.13.41.13h5.51l.34,0a4.38,4.38,0,0,0,0-.51c0-.82,0-1.64,0-2.46V16.84c0-.72,0-.72.72-.72h7.53c.57,0,.6,0,.6.6,0,.21,0,.42,0,.63s-.08.39-.4.41H69.61c-.31,0-.36.07-.36.38,0,.76,0,1.52,0,2.27v6.14c0,.38.06.42.46.43H74c.5,0,.53,0,.54.51v.63c0,.45-.05.49-.5.49H69.55a.28.28,0,0,0-.3.3c0,.12,0,.23,0,.34v9.52c0,.43,0,.47.47.47h6c.52,0,.55,0,.55.55,0,.31,0,.61,0,.92,0,0,0,.05,0,.08a49.33,49.33,0,0,0,5.33,0c.11-.17,0-.26-.12-.35A5.31,5.31,0,0,1,80.9,40a3.48,3.48,0,0,1-1.2-2.74V28.44c0-2.91,0-5.82,0-8.74a3.52,3.52,0,0,1,2.63-3.46,4,4,0,0,1,1-.13c1.1,0,2.19,0,3.29,0a3.57,3.57,0,0,1,3.71,3.61c0,1,0,2,0,3,0,.44-.06.49-.51.5h-.77c-.49,0-.53,0-.53-.51,0-1,0-2,0-3a3.37,3.37,0,0,0-.09-.71A1.58,1.58,0,0,0,87,17.8c-1.27,0-2.54,0-3.82,0a1.66,1.66,0,0,0-1.61,1.61c0,.13,0,.25,0,.38q0,8.75,0,17.49a2.85,2.85,0,0,0,.07.71,1.64,1.64,0,0,0,1.62,1.27c1.19,0,2.38,0,3.58,0a1.68,1.68,0,0,0,1.77-1.76c0-1,0-2,0-2.94v-.34c0-.31.07-.37.38-.37H90c.24,0,.37.11.37.34,0,1.21,0,2.42-.05,3.62a3.28,3.28,0,0,1-1.6,2.57c-.12.08-.24.16-.35.25s0,.05,0,.08c0,.21.18.19.32.19h3.86c.47,0,.5,0,.59-.45Q94.65,33.21,96.2,26l2-9.38c.1-.44.11-.45.58-.46h1.59c.44,0,.46,0,.55.44.58,2.69,1.15,5.38,1.73,8.06q1.57,7.34,3.14,14.67c.09.41.17.82.26,1.23s.13.37.45.37h2.42c.34,0,.39-.06.4-.39,0-.13,0-.26,0-.38V16.84c0-.74,0-.7.75-.75a2.08,2.08,0,0,1,1.74.68c1.86,1.82,3.77,3.59,5.67,5.38.15.13.27.38.52.28s.16-.39.16-.6c0-1.67,0-3.35,0-5v-.34a.29.29,0,0,1,.31-.34h1.16a.28.28,0,0,1,.29.31V40.16c0,.73,0,.73.75.73h2c.42,0,.46,0,.55-.44l1.35-6.32q1.62-7.59,3.25-15.18c.17-.8.34-1.61.52-2.41.08-.39.11-.41.51-.42h1.69c.4,0,.42,0,.5.43q.78,3.59,1.54,7.17l3.33,15.56c.08.38.16.76.25,1.13s.11.48.61.48h8.63a11.5,11.5,0,0,1,0,1.55,2.46,2.46,0,0,1-.33.07,2.54,2.54,0,0,1-.39,0H45c-.29,0-.58,0-.82-.18Zm74-8c0-2.41,0-4.83,0-7.24a1.05,1.05,0,0,0-.38-.88q-3-2.82-6-5.66a2.26,2.26,0,0,0-.29-.25c-.19-.13-.33-.06-.37.17a2.09,2.09,0,0,0,0,.25v21c0,.52,0,.54.55.54h6.18a.3.3,0,0,0,.32-.3c0-.14,0-.29,0-.43ZM99.61,18.52h-.1c0,.21-.09.41-.13.61L96.62,32.5c-.12.61-.25,1.23-.37,1.84-.06.31,0,.37.3.4h6c.32,0,.37-.08.32-.39s-.09-.44-.13-.66L99.74,19C99.71,18.85,99.66,18.69,99.61,18.52Zm30.15,0h-.12c0,.2-.09.39-.13.59l-2.67,12.93c-.16.77-.32,1.54-.47,2.31-.05.28,0,.35.28.38h5.93c.47,0,.5,0,.42-.49,0-.13-.05-.26-.07-.38q-1.27-6.21-2.56-12.41C130.17,20.48,130,19.51,129.76,18.54ZM99.53,40.89h4.2c.46,0,.52-.07.43-.5-.24-1.17-.48-2.33-.73-3.5-.09-.42-.12-.45-.53-.45H96.24c-.4,0-.43,0-.52.42-.14.64-.27,1.29-.4,1.94s-.24,1.09-.35,1.65c-.07.34,0,.43.36.44h4.2Zm30.12,0H134c.34,0,.42-.1.36-.41-.25-1.22-.51-2.45-.77-3.68-.07-.32-.12-.36-.46-.36h-6.76c-.34,0-.39,0-.46.37s-.18.85-.27,1.27c-.16.79-.33,1.57-.49,2.36-.08.35,0,.43.35.45h4.2Z"/>
        <path class="cls-1" d="M101.41,55.86a1.41,1.41,0,0,1-.78-1.46c0-.52,0-1,0-1.55a2.62,2.62,0,0,1,.09-.56.9.9,0,0,1,.91-.66.88.88,0,0,1,.9.72,7.82,7.82,0,0,1,0,2.73,1.61,1.61,0,0,1-.65.78Zm.68-2.17c0-.29,0-.57,0-.86a2,2,0,0,0-.08-.42.38.38,0,0,0-.38-.31.42.42,0,0,0-.41.35.93.93,0,0,0,0,.23v2.06a1,1,0,0,0,0,.24.39.39,0,0,0,.4.34A.36.36,0,0,0,102,55a2,2,0,0,0,.08-.43C102.1,54.3,102.09,54,102.09,53.69Z"/>
        <path class="cls-1" d="M89.92,55.86a1.52,1.52,0,0,1-.77-1.53c0-.43,0-.87,0-1.3a3.83,3.83,0,0,1,.08-.67.93.93,0,0,1,1.08-.72.87.87,0,0,1,.73,1h-.39a.35.35,0,0,1-.07-.09,2.15,2.15,0,0,0-.1-.27.38.38,0,0,0-.67,0,1,1,0,0,0-.11.42c0,.67,0,1.34,0,2a.57.57,0,0,0,.08.32.74.74,0,0,0,.36.25.31.31,0,0,0,.37-.24c0-.1.07-.21.11-.33h.44a.9.9,0,0,1-.4.93l-.27.19Z"/>
        <path class="cls-1" d="M104.48,51.72h.57l.36,2.71h.09c.25-.89.32-1.82.56-2.73h.55l.54,2.74h.1l.36-2.72h.56l-.69,4-.52,0-.58-2.88h-.1l-.57,2.86-.52,0Z"/>
        <path class="cls-1" d="M110.54,55.75H110v-4c.45-.08.45-.08.6.31.25.66.49,1.31.79,2a4.16,4.16,0,0,0,.08-1.11V51.73H112v4c-.42.06-.43.06-.55-.26-.23-.57-.44-1.14-.66-1.71,0-.11-.1-.22-.14-.33l-.1,0Z"/>
        <path class="cls-1" d="M79.2,53.61a1.44,1.44,0,0,1,.33,1.56.71.71,0,0,1-.65.57,11.41,11.41,0,0,1-1.17,0v-4a3.24,3.24,0,0,1,1.28,0,.67.67,0,0,1,.54.56A1.22,1.22,0,0,1,79.2,53.61Zm-1,1.67c.3,0,.61.08.75-.24a1,1,0,0,0,0-1c-.15-.23-.42-.23-.7-.19Zm0-1.88c.65,0,.83-.14.8-.68s-.19-.6-.8-.52Z"/>
        <path class="cls-1" d="M93.12,51.71h.54v1.71h.85V51.73l.5,0v4.05l-.47,0V54h-.87v1.79l-.54,0C93.11,54.41,93.13,53.09,93.12,51.71Z"/>
        <path class="cls-1" d="M85.94,51.72h.51l.93,4-.51,0-.24-1h-.88l-.22.91H85Zm.29,1.07h-.08l-.3,1.52h.69Z"/>
        <path class="cls-1" d="M82.23,54v1.33h1l0,.46H81.79a24.33,24.33,0,0,1-.05-4l.74,0h.75l0,.43-1,.06v1.26l.87.05,0,.42Z"/>
        <path class="cls-1" d="M98.81,51.71v.4l-.63.08v3.56h-.53V52.2L97,52.11v-.4Z"/>
      </g>
    </g>
  </g>
</svg>
